<svg xmlns="http://www.w3.org/2000/svg" viewBox="22 24 62 52"><defs>
  <linearGradient id="gold" x1="28" y1="24" x2="82" y2="86" gradientUnits="userSpaceOnUse">
    <stop offset="0" stop-color="#F6E3A1"/><stop offset=".42" stop-color="#D4AF37"/><stop offset="1" stop-color="#8A6A12"/>
  </linearGradient>
  <linearGradient id="goldEdge" x1="28" y1="24" x2="82" y2="86" gradientUnits="userSpaceOnUse">
    <stop offset="0" stop-color="#FFF4C8"/><stop offset=".5" stop-color="#E4C255"/><stop offset="1" stop-color="#A8851C"/>
  </linearGradient>
  <radialGradient id="sheen" cx="48" cy="30" r="40" gradientUnits="userSpaceOnUse">
    <stop offset="0" stop-color="#FFFFFF" stop-opacity=".22"/><stop offset="1" stop-color="#FFFFFF" stop-opacity="0"/>
  </radialGradient>
  <radialGradient id="bg" cx="54" cy="28" r="84" gradientUnits="userSpaceOnUse">
    <stop offset="0" stop-color="#1B2D63"/><stop offset=".55" stop-color="#0B132B"/><stop offset="1" stop-color="#040914"/>
  </radialGradient></defs><g transform="translate(52 52) scale(.74) translate(-54 -54)">
  <clipPath id="cloudClip">
  <circle cx="40" cy="46" r="11"/><circle cx="56" cy="37" r="15"/><circle cx="71" cy="43" r="11"/><circle cx="80" cy="52" r="7"/>
  <rect x="32" y="46" width="52" height="14" rx="6"/></clipPath>
  <g fill="url(#gold)">
  <circle cx="40" cy="46" r="11"/><circle cx="56" cy="37" r="15"/><circle cx="71" cy="43" r="11"/><circle cx="80" cy="52" r="7"/>
  <rect x="32" y="46" width="52" height="14" rx="6"/><path d="M18 46 C38 58 70 56 92 30 C70 80 36 84 18 46 Z"/><path d="M57 68 C60 74 60 78 62 81 C64 78 64 74 67 68 Z"/></g>
  <rect width="108" height="108" fill="url(#sheen)" clip-path="url(#cloudClip)"/>
  <path d="M18 46 C38 58 70 56 92 30" fill="none" stroke="#0B132B" stroke-width="1.5" stroke-linecap="round"/><path d="M18 46 C37.3 66.7 70 64 92 30" fill="none" stroke="#0B132B" stroke-width="1.5" stroke-linecap="round"/><path d="M18 46 C36.7 75.3 70 72 92 30" fill="none" stroke="#0B132B" stroke-width="1.5" stroke-linecap="round"/>
  </g></svg>